<svg width="25" height="25" viewBox="0 0 25 25" fill="none" xmlns="http://www.w3.org/2000/svg">
<path d="M3.125 19.7918V18.7502C3.125 16.449 4.99048 14.5835 7.29167 14.5835H11.4583C13.7595 14.5835 15.625 16.449 15.625 18.7502V19.7918M15.625 11.4585C17.3509 11.4585 18.75 10.0594 18.75 8.3335C18.75 6.60761 17.3509 5.2085 15.625 5.2085M21.875 19.7918V18.7502C21.875 16.449 20.0095 14.5835 17.7083 14.5835H17.1875M12.5 8.3335C12.5 10.0594 11.1009 11.4585 9.375 11.4585C7.64911 11.4585 6.25 10.0594 6.25 8.3335C6.25 6.60761 7.64911 5.2085 9.375 5.2085C11.1009 5.2085 12.5 6.60761 12.5 8.3335Z" stroke="#A3AED0" stroke-width="2" stroke-linecap="round" stroke-linejoin="round"/>
</svg>
