<svg width="34" height="34" viewBox="0 0 34 34" fill="none" xmlns="http://www.w3.org/2000/svg">
<path d="M0 2C0 0.89543 0.895431 0 2 0H32C33.1046 0 34 0.895431 34 2V32C34 33.1046 33.1046 34 32 34H2C0.89543 34 0 33.1046 0 32V2Z" fill="white"/>
<path d="M0.5 2C0.5 1.17157 1.17157 0.5 2 0.5H32C32.8284 0.5 33.5 1.17157 33.5 2V32C33.5 32.8284 32.8284 33.5 32 33.5H2C1.17157 33.5 0.5 32.8284 0.5 32V2Z" stroke="#C4C4C4" stroke-opacity="0.34"/>
<path d="M13.71 12.7099L16 10.4099V19.9999C16 20.2651 16.1054 20.5195 16.2929 20.707C16.4804 20.8945 16.7348 20.9999 17 20.9999C17.2652 20.9999 17.5196 20.8945 17.7071 20.707C17.8946 20.5195 18 20.2651 18 19.9999V10.4099L20.29 12.7099C20.383 12.8036 20.4936 12.878 20.6154 12.9288C20.7373 12.9796 20.868 13.0057 21 13.0057C21.132 13.0057 21.2627 12.9796 21.3846 12.9288C21.5064 12.878 21.617 12.8036 21.71 12.7099C21.8037 12.6169 21.8781 12.5063 21.9289 12.3845C21.9797 12.2626 22.0058 12.1319 22.0058 11.9999C22.0058 11.8679 21.9797 11.7372 21.9289 11.6153C21.8781 11.4935 21.8037 11.3829 21.71 11.2899L17.71 7.2899C17.6149 7.19886 17.5028 7.12749 17.38 7.0799C17.1365 6.97988 16.8635 6.97988 16.62 7.0799C16.4972 7.12749 16.3851 7.19886 16.29 7.2899L12.29 11.2899C12.1968 11.3831 12.1228 11.4938 12.0723 11.6156C12.0219 11.7375 11.9959 11.868 11.9959 11.9999C11.9959 12.1318 12.0219 12.2623 12.0723 12.3841C12.1228 12.506 12.1968 12.6167 12.29 12.7099C12.3832 12.8031 12.4939 12.8771 12.6158 12.9276C12.7376 12.978 12.8681 13.004 13 13.004C13.1319 13.004 13.2624 12.978 13.3842 12.9276C13.5061 12.8771 13.6168 12.8031 13.71 12.7099ZM26 16.9999C25.7348 16.9999 25.4804 17.1053 25.2929 17.2928C25.1054 17.4803 25 17.7347 25 17.9999V23.9999C25 24.2651 24.8946 24.5195 24.7071 24.707C24.5196 24.8945 24.2652 24.9999 24 24.9999H10C9.73478 24.9999 9.48043 24.8945 9.29289 24.707C9.10536 24.5195 9 24.2651 9 23.9999V17.9999C9 17.7347 8.89464 17.4803 8.70711 17.2928C8.51957 17.1053 8.26522 16.9999 8 16.9999C7.73478 16.9999 7.48043 17.1053 7.29289 17.2928C7.10536 17.4803 7 17.7347 7 17.9999V23.9999C7 24.7955 7.31607 25.5586 7.87868 26.1212C8.44129 26.6838 9.20435 26.9999 10 26.9999H24C24.7956 26.9999 25.5587 26.6838 26.1213 26.1212C26.6839 25.5586 27 24.7955 27 23.9999V17.9999C27 17.7347 26.8946 17.4803 26.7071 17.2928C26.5196 17.1053 26.2652 16.9999 26 16.9999Z" fill="black"/>
</svg>
