<svg width="24" height="35" viewBox="0 0 24 35" fill="none" xmlns="http://www.w3.org/2000/svg">
<g clip-path="url(#clip0_101_10352)">
<path d="M12 17.6471C14.21 17.6471 16 15.1002 16 11.9557C16 8.81128 14.21 6.2644 12 6.2644C9.79 6.2644 8 8.81128 8 11.9557C8 15.1002 9.79 17.6471 12 17.6471ZM12 20.4927C9.33 20.4927 4 22.3993 4 26.1841V27.6069C4 28.3895 4.45 29.0297 5 29.0297H19C19.55 29.0297 20 28.3895 20 27.6069V26.1841C20 22.3993 14.67 20.4927 12 20.4927Z" fill="#A3AED0"/>
</g>
<defs>
<clipPath id="clip0_101_10352">
<rect width="24" height="34.148" fill="white" transform="translate(0 0.572998)"/>
</clipPath>
</defs>
</svg>
